<?xml version="1.0" encoding="utf-8"?>
<!-- Generator: Adobe Illustrator 16.0.0, SVG Export Plug-In . SVG Version: 6.00 Build 0)  -->
<!DOCTYPE svg PUBLIC "-//W3C//DTD SVG 1.1//EN" "http://www.w3.org/Graphics/SVG/1.1/DTD/svg11.dtd">
<svg version="1.1" id="Layer_1" xmlns="http://www.w3.org/2000/svg" xmlns:xlink="http://www.w3.org/1999/xlink" x="0px" y="0px"
	 width="512px" height="512px" viewBox="0 0 512 512" enable-background="new 0 0 512 512" xml:space="preserve">
<g>
	<path fill="#FFFFFF" d="M17,495c8,8,20.9,8,28.9,0l117.8-117.7c35.601,29.2,81.1,46.7,130.8,46.7C408.601,424,501,331.5,501,217.5
		S408.601,11,294.5,11C180.5,11,88,103.5,88,217.5c0,49.7,17.601,95.3,46.801,130.9L17,466.2C9,474.1,9,487.1,17,495z M129,217.5
		C129,126.3,203.301,52,294.5,52C385.8,52,460,126.3,460,217.5s-74.2,165.4-165.5,165.4C203.301,382.9,129,308.7,129,217.5z"/>
</g>
</svg>
